
<svg xmlns="http://www.w3.org/2000/svg" xmlns:xlink="http://www.w3.org/1999/xlink" width="1166.0562438964844" height="297.2687683105469" viewBox="0 0 1166.0562438964844 297.2687683105469" fill="none">
<path    stroke="rgba(0, 0, 0, 1)" stroke-width="15"    d="M27.863 66.1C27.863 66.1 77.3927 23.2475 116.363 25.1C171.543 27.723 204.584 63.8715 219.363 117.1C240.542 193.38 195.127 278.136 116.363 286.1C37.599 294.064 -5.24612 232.454 10.863 172.6C24.986 120.126 80.9337 110.42 134.863 117.1C217.142 127.292 219.363 286.1 254.863 286.1C290.363 286.1 386.219 31.8468 290.363 25.1C262.97 23.1719 245.184 57.2372 290.363 97.6C335.542 137.963 380.82 -4.2244 440.863 25.1C500.906 54.4244 491.391 286.1 467.383 286.1C447.514 286.1 440.863 263.969 440.863 244.1C440.863 117.1 579.363 80.6 579.363 80.6L557.393 269.1M1158.86 117.1C1158.86 117.1 1139.95 53.0106 1104.96 46.06C1073.81 39.8707 1049.44 59.3358 1033.46 80.6C1008.27 114.12 1061.02 151.16 1080.86 174.1C1104.9 201.896 1156.3 210.988 1140.36 244.1C1124.85 276.325 1112.95 286.1 1050.95 244.1C988.953 202.1 919.783 244.1 886.863 244.1C853.943 244.1 778.933 154.03 886.863 66.1C926.43 46.06 956.93 46.06 987.363 80.6C1017.8 115.14 1008.04 165.431 987.363 215.1C966.688 264.769 843.264 320.964 798.363 269.1C753.463 217.236 798.363 172.6 798.363 97.6C798.363 67.4617 774.902 46.06 743.403 46.06C711.904 46.06 672.075 71.3389 669.363 97.6C661.474 174 627.473 269 627.473 269M579.463 0L579.463 25">
</path>
</svg>
