
<svg xmlns="http://www.w3.org/2000/svg" xmlns:xlink="http://www.w3.org/1999/xlink" width="894.463623046875" height="375.1004943847656" viewBox="0 0 894.463623046875 375.1004943847656" fill="none">
<path    stroke="rgba(0, 0, 0, 1)" stroke-width="15"    d="M338.63 95.6005C338.63 95.6005 292.828 -0.887651 193.63 8.09049C94.4329 17.0686 18.1767 69.2852 8.13024 175.6C-1.91624 281.916 110.634 367.6 193.63 367.6C276.627 367.6 307.128 347.6 338.63 283.09C368.356 222.22 355.024 178.403 394.13 123.09C433.237 67.7775 517.894 -21.945 556.13 79.0905C594.366 180.126 527.13 347.6 527.13 347.6M601.13 347.6C601.13 347.6 625.73 186.5 642.13 79.1005C664.53 66.5005 672.483 49.2569 698.13 47.6005C727.322 45.7151 747.236 55.2195 764.13 79.1005M764.13 79.1005C753.93 186.5 738.63 347.6 738.63 347.6M764.13 79.1005C801.13 66.5005 820.934 29.8862 856.63 47.6005C892.326 65.3148 886.63 102.751 886.63 142.6C886.63 255.6 856.63 367.6 856.63 367.6">
</path>
</svg>
