
<svg xmlns="http://www.w3.org/2000/svg" xmlns:xlink="http://www.w3.org/1999/xlink" width="849.9991760253906" height="392.00540924072266" viewBox="0 0 849.9991760253906 392.00540924072266" fill="none">
<path    stroke="rgba(0, 0, 0, 1)" stroke-width="15"    d="M115.629 372.331C155.003 272.251 158.821 278.186 115.629 160.091C93.3123 99.0747 -60.63 271.493 43.0288 194.581C146.688 117.669 153.651 77.0588 159.869 38.0612C166.087 -0.936252 240.109 -4.39991 240.109 38.0612C240.109 80.5224 237.746 155.428 198.419 138.871C159.092 122.315 167.119 111.204 180.649 99.0813C198.414 83.1639 309.344 70.1784 328.699 99.0813C346.464 125.61 346.459 144.174 346.459 160.091C346.459 260.901 328.699 372.33 284.759 382.941C240.939 393.524 197.429 348.35 207.299 308.661C219.539 259.444 346.459 254.501 385.999 308.661M468.509 372.331C518.844 364.373 607.669 290.085 607.669 194.581C607.669 160.094 572.087 138.871 542.529 138.871C512.971 138.871 501.259 170.705 501.259 194.581C501.259 218.457 501.26 335.175 646.819 372.331C759.348 404.15 794.403 299.771 827.369 247.641C836.048 233.916 844.241 226.168 842.179 210.501C840.117 194.835 809.609 183.971 809.609 183.971M809.609 183.971C809.609 183.971 865.304 95.0983 827.369 56.6313C797.838 26.6866 717.819 38.0612 717.819 38.0612M809.609 183.971C809.609 183.971 747.862 182.44 726.699 176.011C705.536 169.582 693.719 153.354 697.089 133.561C699.269 120.756 717.819 107.041 717.819 107.041">
</path>
</svg>
